<svg width="80" height="80" viewBox="0 0 80 80" fill="none" xmlns="http://www.w3.org/2000/svg">
<path d="M60 6.66669H20C14.4667 6.66669 10 11.1 10 16.5667V52.9334C10 58.4 14.4667 62.8334 20 62.8334H22.5333C25.2 62.8334 27.7333 63.8667 29.6 65.7334L35.3 71.3667C37.9 73.9334 42.1333 73.9334 44.7333 71.3667L50.4333 65.7334C52.3 63.8667 54.8667 62.8334 57.5 62.8334H60C65.5333 62.8334 70 58.4 70 52.9334V16.5667C70 11.1 65.5333 6.66669 60 6.66669ZM40 19.1667C44.3 19.1667 47.7667 22.6334 47.7667 26.9334C47.7667 31.2334 44.3 34.7 40 34.7C35.7 34.7 32.2333 31.2 32.2333 26.9334C32.2333 22.6334 35.7 19.1667 40 19.1667ZM48.9333 50.2H31.0667C28.3667 50.2 26.8 47.2 28.3 44.9667C30.5667 41.6 34.9667 39.3334 40 39.3334C45.0333 39.3334 49.4333 41.6 51.7 44.9667C53.2 47.2 51.6 50.2 48.9333 50.2Z" fill="#D9D9D9"/>
</svg>
