<svg width="80" height="80" viewBox="0 0 80 80" fill="none" xmlns="http://www.w3.org/2000/svg">
<path d="M56.667 6.66669H23.3337C14.1337 6.66669 6.66699 14.1 6.66699 23.2667V46.5334C6.66699 55.7 14.1337 63.1334 23.3337 63.1334H28.3337C29.2337 63.1334 30.4337 63.7334 31.0003 64.4667L36.0003 71.1C38.2003 74.0334 41.8003 74.0334 44.0003 71.1L49.0003 64.4667C49.6337 63.6334 50.6337 63.1334 51.667 63.1334H56.667C65.867 63.1334 73.3337 55.7 73.3337 46.5334V23.2667C73.3337 14.1 65.867 6.66669 56.667 6.66669ZM26.667 40C24.8003 40 23.3337 38.5 23.3337 36.6667C23.3337 34.8334 24.8337 33.3334 26.667 33.3334C28.5003 33.3334 30.0003 34.8334 30.0003 36.6667C30.0003 38.5 28.5337 40 26.667 40ZM40.0003 40C38.1337 40 36.667 38.5 36.667 36.6667C36.667 34.8334 38.167 33.3334 40.0003 33.3334C41.8337 33.3334 43.3337 34.8334 43.3337 36.6667C43.3337 38.5 41.867 40 40.0003 40ZM53.3337 40C51.467 40 50.0003 38.5 50.0003 36.6667C50.0003 34.8334 51.5003 33.3334 53.3337 33.3334C55.167 33.3334 56.667 34.8334 56.667 36.6667C56.667 38.5 55.2003 40 53.3337 40Z" fill="#D9D9D9"/>
</svg>
