<svg width="80" height="80" viewBox="0 0 80 80" fill="none" xmlns="http://www.w3.org/2000/svg">
<path d="M42.5 53.0665H44.6667C46.8333 53.0665 48.6333 51.1331 48.6333 48.7998C48.6333 45.8998 47.6 45.3331 45.9 44.7331L42.5333 43.5665V53.0665H42.5Z" fill="#D9D9D9"/>
<path d="M39.9006 6.32653C21.5005 6.3932 6.60055 21.3599 6.66722 39.7599C6.73388 58.1599 21.7005 73.0599 40.1005 72.9932C58.5005 72.9265 73.4006 57.9599 73.3339 39.5599C73.2672 21.1599 58.3006 6.2932 39.9006 6.32653ZM47.5339 39.9932C50.1339 40.8932 53.6339 42.8265 53.6339 48.7932C53.6339 53.9265 49.6005 58.0599 44.6672 58.0599H42.5005V59.9932C42.5005 61.3599 41.3672 62.4932 40.0005 62.4932C38.6339 62.4932 37.5005 61.3599 37.5005 59.9932V58.0599H36.3006C30.8339 58.0599 26.4005 53.4599 26.4005 47.7932C26.4005 46.4265 27.5339 45.2932 28.9005 45.2932C30.2672 45.2932 31.4005 46.4265 31.4005 47.7932C31.4005 50.6932 33.6006 53.0599 36.3006 53.0599H37.5005V41.7932L32.4672 39.9932C29.8672 39.0932 26.3672 37.1599 26.3672 31.1932C26.3672 26.0599 30.4006 21.9265 35.3339 21.9265H37.5005V19.9932C37.5005 18.6265 38.6339 17.4932 40.0005 17.4932C41.3672 17.4932 42.5005 18.6265 42.5005 19.9932V21.9265H43.7005C49.1672 21.9265 53.6006 26.5265 53.6006 32.1932C53.6006 33.5599 52.4672 34.6932 51.1005 34.6932C49.7339 34.6932 48.6005 33.5599 48.6005 32.1932C48.6005 29.2932 46.4005 26.9265 43.7005 26.9265H42.5005V38.1932L47.5339 39.9932Z" fill="#D9D9D9"/>
<path d="M31.4062 31.2267C31.4062 34.1267 32.4396 34.6934 34.1396 35.2934L37.5062 36.46V26.9267H35.3396C33.1729 26.9267 31.4062 28.86 31.4062 31.2267Z" fill="#D9D9D9"/>
</svg>
