<svg width="80" height="80" viewBox="0 0 80 80" fill="none" xmlns="http://www.w3.org/2000/svg">
<path d="M72.7001 13.1267C68.3335 24.0267 58.3668 38.26 48.8668 47.56C48.1916 43.3577 46.1851 39.4833 43.1428 36.5069C40.1004 33.5305 36.1828 31.6095 31.9668 31.0266C41.3001 21.4933 55.6335 11.3933 66.5668 6.99332C68.5001 6.25999 70.4335 6.82665 71.6335 8.02665C72.9001 9.29332 73.5001 11.1933 72.7001 13.1267V13.1267Z" fill="#595959"/>
<path d="M45.9332 50.3C45.2666 50.8667 44.5999 51.4333 43.9332 51.9667L37.9666 56.7333C37.9666 56.6333 37.9332 56.5 37.9332 56.3667C37.4666 52.8 35.7999 49.5 33.0999 46.8C30.4521 44.114 26.976 42.3994 23.2332 41.9333C23.1332 41.9333 22.9999 41.9 22.8999 41.9L27.7332 35.8C28.1999 35.2 28.6999 34.6333 29.2332 34.0333L31.4999 34.3333C38.6666 35.3333 44.4332 40.9667 45.5666 48.1L45.9332 50.3V50.3Z" fill="#595959"/>
<path d="M34.7667 58.7333C34.7667 62.4 33.3667 65.9 30.7 68.5333C28.6667 70.6 25.9334 72 22.6 72.4L14.4334 73.3C9.9667 73.8 6.13336 69.9666 6.63336 65.4666L7.53336 57.2666C8.33336 49.9666 14.4334 45.3 20.9 45.1666C21.5334 45.1333 22.2334 45.1666 22.9 45.2333C25.7334 45.6 28.4667 46.9 30.7667 49.1666C33 51.4 34.2667 54.0333 34.6334 56.8C34.7 57.4666 34.7667 58.1 34.7667 58.7333V58.7333Z" fill="#595959"/>
</svg>
