<svg width="80" height="80" viewBox="0 0 80 80" fill="none" xmlns="http://www.w3.org/2000/svg">
<path d="M73.3337 32.5C71.967 32.5 70.8337 31.3667 70.8337 30V23.3334C70.8337 14.7334 65.267 9.16669 56.667 9.16669H23.3337C14.7337 9.16669 9.16699 14.7334 9.16699 23.3334V30C9.16699 31.3667 8.03366 32.5 6.66699 32.5C5.30033 32.5 4.16699 31.3667 4.16699 30V23.3334C4.16699 11.8667 11.867 4.16669 23.3337 4.16669H56.667C68.1337 4.16669 75.8337 11.8667 75.8337 23.3334V30C75.8337 31.3667 74.7003 32.5 73.3337 32.5ZM56.667 75.8334H23.3337C11.867 75.8334 4.16699 68.1334 4.16699 56.6667V50C4.16699 48.6334 5.30033 47.5 6.66699 47.5C8.03366 47.5 9.16699 48.6334 9.16699 50V56.6667C9.16699 65.2667 14.7337 70.8334 23.3337 70.8334H56.667C65.267 70.8334 70.8337 65.2667 70.8337 56.6667V50C70.8337 48.6334 71.967 47.5 73.3337 47.5C74.7003 47.5 75.8337 48.6334 75.8337 50V56.6667C75.8337 68.1334 68.1337 75.8334 56.667 75.8334Z" fill="#595959"/>
<path d="M54.6667 27.3667L42.1334 20.6C40.8 19.9 39.2334 19.9 37.9 20.6L25.3334 27.3667C24.4334 27.8667 23.8667 28.8333 23.8667 29.9C23.8667 31 24.4334 31.9667 25.3334 32.4667L37.8667 39.2333C38.5334 39.6 39.2667 39.7667 40 39.7667C40.7334 39.7667 41.4667 39.6 42.1334 39.2333L54.6667 32.4667C55.1188 32.2097 55.4936 31.8358 55.7516 31.3843C56.0097 30.9327 56.1415 30.42 56.1334 29.9C56.1334 28.8333 55.5667 27.8667 54.6667 27.3667ZM35.8 41.5633L24.1334 35.73C23.6937 35.5128 23.2059 35.4111 22.7161 35.4345C22.2263 35.4578 21.7504 35.6054 21.3334 35.8633C20.9233 36.1229 20.5859 36.4823 20.3527 36.9079C20.1195 37.3335 19.9981 37.8114 20 38.2967V49.33C20 51.23 21.0667 52.9633 22.7667 53.7967L34.4334 59.63C34.8334 59.83 35.2667 59.93 35.7334 59.93C36.2667 59.93 36.7667 59.7967 37.2334 59.4967C38.1 58.9633 38.6 58.0633 38.6 57.0633V46.03C38.5667 44.13 37.5334 42.43 35.8 41.5633ZM58.64 35.86C58.223 35.6021 57.7471 35.4545 57.2573 35.4311C56.7674 35.4078 56.2797 35.5095 55.84 35.7267L44.1734 41.56C43.3431 41.9745 42.6447 42.6118 42.156 43.4007C41.6674 44.1895 41.408 45.0988 41.4067 46.0267V57.06C41.4067 58.06 41.9067 58.96 42.7734 59.4933C43.24 59.7933 43.74 59.9267 44.2734 59.9267C44.7067 59.9267 45.14 59.8267 45.5734 59.6267L57.24 53.7933C58.94 52.9267 60.0067 51.2267 60.0067 49.3267V38.2933C60.0067 37.2933 59.5067 36.3933 58.64 35.86Z" fill="#595959"/>
</svg>
