<svg width="90" height="53" viewBox="0 0 90 53" fill="none" xmlns="http://www.w3.org/2000/svg">
<path d="M19.1279 52.5C18.3245 51.5636 17.5211 50.6272 16.6795 49.6561C15.8762 50.7659 15.2641 50.2804 14.6903 49.4133C14.5755 49.2399 14.4225 49.0318 14.346 48.8584C13.8869 47.2977 13.2748 46.1532 11.0178 46.1879C10.2527 46.2226 9.44931 45.1127 8.56944 44.7312C7.88084 44.5231 6.92446 44.4538 6.54191 44.0376C5.16473 42.4075 3.97881 40.6735 2.75465 38.9394C2.4486 38.4885 2.25733 37.9336 1.95129 37.3093C1.60699 37.5521 1.37746 37.7255 1.14793 37.8989C1.03316 37.7948 0.9184 37.6908 0.880145 37.5868C-0.344021 34.9509 -0.152744 32.2804 0.61236 29.5752C0.918401 28.5694 1.26269 27.5983 1.60699 26.5926C1.87478 25.7602 2.10431 24.9972 1.37746 24.1648C0.765381 23.5059 1.07142 22.7776 1.64525 22.0492C2.25733 21.3209 2.63989 20.4539 3.02244 19.6215C3.29022 19.0666 3.32848 18.4423 3.4815 17.8527C3.94056 16.1186 4.70566 14.3498 2.90767 12.8238C2.83116 12.7545 2.7929 12.6851 2.7929 12.5811C2.48686 9.56372 1.37746 6.58107 2.25733 3.52906C2.48686 2.62733 3.06069 1.76028 3.71103 1.06664C5.0117 -0.355323 6.96272 -0.320642 8.45467 0.962591C9.25803 1.65623 10.0996 2.28051 10.9413 2.90478C11.8976 3.6331 13.007 3.73715 14.2312 3.80651C16.0292 3.91056 17.8272 4.3961 19.6252 4.84697C19.8547 4.91633 20.0842 5.67934 19.9695 6.06084C19.893 6.30361 19.2044 6.61575 18.8601 6.54639C18.2862 6.47703 17.7124 6.16489 17.1769 5.88743C15.4171 4.9857 13.7339 5.19379 12.0124 5.99148C11.1708 6.37298 10.1762 6.47702 9.37279 6.92789C8.56943 7.37875 7.53654 7.93367 7.26876 8.62731C6.38889 11.1244 5.77681 13.6909 5.16472 16.2573C4.85868 17.5059 4.85868 18.8238 4.51439 20.0724C4.28486 20.9047 3.63452 21.6677 3.29022 22.5001C3.1372 22.8816 3.21371 23.6793 3.36673 23.714C4.47613 24.0608 4.2466 24.7544 4.20834 25.4827C4.09358 27.2862 4.01707 29.0897 4.01707 30.8931C4.01707 31.448 4.36137 32.003 4.62915 32.8006C5.08822 32.0376 5.356 31.5521 5.7003 30.8931C5.81506 32.0723 5.89157 33.0087 6.00634 33.9798C6.1211 34.0145 6.27412 34.0145 6.38889 34.0492C6.65667 33.5983 6.88621 33.1821 7.30702 32.4538C7.26876 35.4365 7.38353 38.0723 10.1762 40.2226C10.1762 38.3844 10.1762 36.8584 10.1762 34.9509C9.7936 35.818 9.52581 36.3729 9.25803 36.9278C8.14863 35.5752 8.18689 33.2862 9.52582 29.4365C8.83722 29.818 8.3399 30.0608 7.53654 30.477C7.84259 29.4365 8.07212 28.6041 8.37816 27.6677C7.84259 27.7718 7.42178 27.8758 6.88621 27.9799C6.65668 26.8007 7.34527 26.107 8.30165 25.5521C9.06675 25.1012 9.29628 25.6562 9.4493 26.2111C9.67883 27.0088 9.87011 27.8064 10.1762 28.5348C10.3674 28.9163 10.8265 29.1937 11.4386 29.3671C11.209 28.5348 10.9413 27.7371 10.6352 26.5926C11.2856 27.1128 11.6298 27.3903 12.1654 27.8064C12.1654 27.2168 12.1654 26.8353 12.1654 26.3845C13.007 26.8007 13.8104 27.3209 14.9198 26.3151C12.3567 26.2111 11.6299 24.7197 11.2473 22.9856C10.0231 23.0203 9.71709 22.6388 10.0614 21.7024C10.0996 21.5637 10.1762 21.4596 10.2527 21.3556C12.1272 18.7198 12.4332 18.9279 13.9252 21.1822C14.6903 22.3614 15.5319 23.5059 16.4883 24.8585C17.4064 23.3325 16.8326 22.1533 16.2205 21.1128C15.6084 20.0724 14.7285 19.1706 13.7721 18.0261C14.499 18.1302 14.9581 18.1649 15.7232 18.2689C15.4171 17.1938 15.1111 16.2227 14.7285 15.0088C15.3406 15.3209 15.6849 15.4943 16.2587 15.7718C16.0292 14.766 15.8379 13.9683 15.6466 13.136C15.7614 13.0666 15.9144 13.0319 16.0292 12.9626C16.603 13.5868 17.1769 14.2111 17.7507 14.8354C17.8654 14.8007 18.0185 14.8007 18.1332 14.766C17.9802 13.7256 17.8272 12.6851 17.7124 12.0955C16.45 11.5753 15.6084 11.2285 14.652 10.8123C14.3077 12.2342 13.2366 10.951 12.4715 11.055C12.5097 12.4423 12.4715 12.373 10.9413 12.477C9.75535 12.581 8.53118 12.8585 7.23051 13.0666C7.49829 11.61 8.95198 11.3325 10.0231 10.5695C9.67883 10.188 9.33454 9.91054 9.06675 9.56372C8.87547 9.28627 8.53118 8.8354 8.64595 8.73136C8.87548 8.48858 9.33454 8.28049 9.67883 8.2458C10.2527 8.21112 10.7882 8.34985 11.5151 8.41921C11.4768 8.00303 11.4386 7.62153 11.3238 6.75448C12.7775 7.4828 13.9634 8.03771 15.3023 8.69667C15.2258 7.96835 15.1493 7.34407 15.0346 6.3383C15.6849 6.82384 16.144 7.03194 16.45 7.34408C18.4775 9.56372 19.7399 12.0608 19.7017 15.0088C19.6634 18.8932 19.7017 22.7776 19.7017 26.6619C19.0131 26.4192 18.4393 26.2111 17.5594 25.8989C17.7889 26.5579 17.942 26.9394 18.1332 27.4596C16.6795 27.3556 15.4171 27.529 15.2258 29.2284C15.6084 29.3671 15.9909 29.4712 16.5265 29.6446C13.1601 33.4943 14.499 37.9336 14.3077 42.1648C14.2695 43.1359 14.8815 43.6908 16.0292 43.6561C16.9856 43.6214 17.9037 43.552 19.0896 43.5174C18.7836 43.1359 18.7453 42.9278 18.6688 42.9278C17.5211 42.7891 16.603 42.4422 16.1822 41.3324C15.5701 39.6677 14.9963 38.0376 15.6466 36.3035C15.9527 35.5405 19.0131 35.2977 19.4722 35.9914C19.893 36.6157 19.7399 37.1706 18.8218 37.344C18.3628 37.4133 17.8654 37.3787 17.4064 37.448C16.1822 37.6561 15.9144 38.3151 16.3735 39.1128C17.1003 39.0087 17.7889 38.6966 18.3245 38.87C18.6305 38.974 18.6305 39.8064 18.7453 40.3266C18.2097 40.4307 17.6742 40.5 16.8708 40.6388C17.2916 40.9162 17.7124 41.4711 18.1715 41.5058C20.2755 41.5752 19.5869 42.9971 19.6634 43.9682C19.7782 45.1821 18.7453 45.0434 17.9037 45.0781C17.7124 45.0781 17.5594 45.1474 17.2151 45.5289C17.6359 45.7023 18.095 45.8064 18.4775 46.0145C18.8983 46.2572 19.5869 46.5347 19.6252 46.8468C19.7399 48.5463 19.6634 50.2803 19.6634 51.9798C19.5104 52.2919 19.3191 52.396 19.1279 52.5ZM4.47613 11.2978C4.6674 11.2978 4.85868 11.2631 5.04996 11.2631C4.97345 10.3961 4.74392 9.52904 4.85868 8.69667C4.97345 7.8643 5.47076 7.06662 5.81506 6.19957C5.54727 6.13021 5.16472 6.06084 4.6674 5.9568C5.08821 5.43657 5.39425 5.05506 5.73855 4.6042C5.356 4.50015 5.04996 4.43079 4.74392 4.36142C5.62379 3.11287 6.04459 3.04351 7.19225 3.91056C7.68957 4.29206 8.18689 4.74293 8.76071 4.9857C9.18152 5.15911 9.7936 5.05507 10.2909 5.08975C10.3292 4.95102 10.3292 4.81229 10.3674 4.70824C9.29628 3.94524 8.18688 3.21692 7.15399 2.41923C5.89157 1.48282 5.16472 1.48282 4.20834 2.62733C3.74928 3.18224 3.44324 3.80651 3.1372 4.43079C2.7929 5.19379 2.75465 5.88743 4.05533 5.85275C3.82579 7.79494 3.32847 9.63308 4.47613 11.2978ZM13.007 23.2284C12.8923 23.2284 12.7775 23.2284 12.6627 23.2284C12.8923 23.8527 13.0453 24.5117 13.3513 25.0666C13.4661 25.2747 14.0399 25.2747 14.5755 25.4134C13.9634 24.5117 13.4661 23.8527 13.007 23.2284Z" fill="#D9D9D9"/>
<path d="M5.8916 23.4365C5.24126 23.3671 4.82045 23.3325 4.32313 23.2978C4.93522 21.8411 5.5473 20.4539 6.08287 19.0666C6.61845 17.6446 7.03925 16.188 7.53657 14.766C7.68959 14.8007 7.84261 14.8354 7.99563 14.8701C7.61308 16.7082 7.19227 18.5117 6.73321 20.5579C7.34529 20.3151 7.61308 20.2111 7.88087 20.1417C8.68423 21.425 6.3124 22.6041 7.68959 23.6446C6.92449 25.1359 6.19764 26.5579 5.43253 28.0839C4.55266 26.4885 5.27952 24.9972 5.8916 23.4365Z" fill="#D9D9D9"/>
<path d="M8.952 21.5984C9.14328 19.7602 9.3728 17.818 9.56408 15.9799C10.903 17.1938 10.597 20.107 8.952 21.5984Z" fill="#D9D9D9"/>
<path d="M32.848 24.538H28.848C27.1627 24.538 25.904 24.1753 25.072 23.45C24.2613 22.7033 23.856 21.5727 23.856 20.058V8.122C23.856 6.586 24.2613 5.45533 25.072 4.73C25.904 4.00466 27.1627 3.642 28.848 3.642H37.456V7.034H28.08C27.824 7.034 27.696 7.162 27.696 7.418V20.762C27.696 21.018 27.824 21.146 28.08 21.146H33.84C34.096 21.146 34.224 21.018 34.224 20.762V15.706L34.608 16.314H31.376V13.146H37.84V20.058C37.84 21.5727 37.424 22.7033 36.592 23.45C35.7813 24.1753 34.5333 24.538 32.848 24.538ZM45.359 24.538H44.143C42.8203 24.538 41.839 24.2607 41.199 23.706C40.5803 23.13 40.271 22.1807 40.271 20.858V18.81C40.271 17.3593 40.6017 16.3567 41.263 15.802C41.9243 15.226 43.0337 14.938 44.591 14.938H48.623V17.53H44.239C43.983 17.53 43.855 17.658 43.855 17.914V21.21C43.855 21.466 43.983 21.594 44.239 21.594H48.207V11.962C48.207 11.706 48.079 11.578 47.823 11.578H41.295V8.538H47.439C49.0177 8.51666 50.1483 8.81533 50.831 9.434C51.5137 10.0527 51.855 11.1193 51.855 12.634V24.25H48.591L48.207 21.594L48.399 21.178C48.399 22.2447 48.1643 23.0767 47.695 23.674C47.2257 24.25 46.447 24.538 45.359 24.538ZM61.218 8.282H62.37C63.7353 8.282 64.7167 8.55933 65.314 9.114C65.9327 9.66866 66.242 10.618 66.242 11.962V24.25H62.626V11.61C62.626 11.354 62.498 11.226 62.242 11.226H58.722C58.466 11.226 58.338 11.354 58.338 11.61L58.402 24.25H54.786L54.722 8.57H57.986L58.338 11.226L58.114 11.642C58.114 10.554 58.3593 9.722 58.85 9.146C59.362 8.57 60.1513 8.282 61.218 8.282ZM69.122 8.282H70.21C71.5753 8.282 72.5567 8.55933 73.154 9.114C73.7727 9.66866 74.082 10.618 74.082 11.962V24.25H70.466V11.61C70.466 11.354 70.338 11.226 70.082 11.226H66.626C66.37 11.226 66.242 11.354 66.242 11.61L66.146 12.058L66.018 11.642C66.018 10.554 66.2633 9.722 66.754 9.146C67.2447 8.57 68.034 8.282 69.122 8.282ZM87.8878 24.442H81.5198C79.8344 24.442 78.6184 24.122 77.8718 23.482C77.1251 22.8207 76.7518 21.7327 76.7518 20.218V12.314C76.7518 10.778 77.0718 9.722 77.7118 9.146C78.3518 8.57 79.4504 8.282 81.0078 8.282H83.9838C85.5624 8.282 86.6718 8.57 87.3118 9.146C87.9731 9.722 88.3038 10.778 88.3038 12.314V18.266H79.9518V15.674H84.7198V11.61C84.7198 11.354 84.6024 11.226 84.3678 11.226H80.7518C80.4958 11.226 80.3678 11.354 80.3678 11.61V21.018C80.3678 21.274 80.4958 21.402 80.7518 21.402H87.8878V24.442ZM35.088 37.634V40.866H27.376L27.92 40.29V49.25H24.176V28.93H27.92V38.178L27.376 37.634H35.088ZM26.416 32.194V28.93H35.696V32.194H26.416ZM45.4065 36.354H41.4705C41.2145 36.354 41.0865 36.482 41.0865 36.738V46.082C41.0865 46.338 41.2145 46.466 41.4705 46.466H45.4065C45.6625 46.466 45.7905 46.338 45.7905 46.082V36.738C45.7905 36.482 45.6625 36.354 45.4065 36.354ZM37.4385 45.282V37.538C37.4385 36.002 37.8118 34.914 38.5585 34.274C39.3052 33.6127 40.5212 33.282 42.2065 33.282H44.6705C46.3558 33.282 47.5718 33.6127 48.3185 34.274C49.0652 34.914 49.4385 36.002 49.4385 37.538V45.282C49.4385 46.7967 49.0652 47.8847 48.3185 48.546C47.5718 49.2073 46.3558 49.538 44.6705 49.538H42.2065C40.5212 49.538 39.3052 49.2073 38.5585 48.546C37.8118 47.8847 37.4385 46.7967 37.4385 45.282ZM58.9405 33.282H60.1565V36.45H56.4445C56.1885 36.45 56.0605 36.578 56.0605 36.834L56.0925 49.25H52.4765L52.4445 33.57H55.6765L56.0605 36.226L55.8365 36.642C55.8365 35.554 56.0818 34.722 56.5725 34.146C57.0632 33.57 57.8525 33.282 58.9405 33.282ZM70.7558 49.538H65.9878C64.3024 49.538 63.0864 49.2073 62.3398 48.546C61.5931 47.8847 61.2198 46.7967 61.2198 45.282V37.538C61.2198 36.002 61.5931 34.914 62.3398 34.274C63.0864 33.6127 64.3024 33.282 65.9878 33.282H70.7558V36.354H65.2518C64.9958 36.354 64.8678 36.482 64.8678 36.738V46.082C64.8678 46.338 64.9958 46.466 65.2518 46.466H70.7558V49.538ZM83.8253 49.442H77.4573C75.7719 49.442 74.5559 49.122 73.8093 48.482C73.0626 47.8207 72.6893 46.7327 72.6893 45.218V37.314C72.6893 35.778 73.0093 34.722 73.6493 34.146C74.2893 33.57 75.3879 33.282 76.9453 33.282H79.9213C81.4999 33.282 82.6093 33.57 83.2493 34.146C83.9106 34.722 84.2413 35.778 84.2413 37.314V43.266H75.8893V40.674H80.6573V36.61C80.6573 36.354 80.5399 36.226 80.3053 36.226H76.6893C76.4333 36.226 76.3053 36.354 76.3053 36.61V46.018C76.3053 46.274 76.4333 46.402 76.6893 46.402H83.8253V49.442Z" fill="#D9D9D9"/>
</svg>
