<svg width="16" height="17" viewBox="0 0 16 17" fill="none" xmlns="http://www.w3.org/2000/svg">
<path d="M14.5402 3.37534C13.6669 5.55534 11.6736 8.40201 9.77355 10.262C9.63851 9.42156 9.23722 8.64667 8.62875 8.05139C8.02027 7.45612 7.23676 7.07192 6.39355 6.95534C8.26022 5.04868 11.1269 3.02868 13.3136 2.14868C13.7002 2.00201 14.0869 2.11534 14.3269 2.35534C14.5802 2.60868 14.7002 2.98868 14.5402 3.37534V3.37534Z" fill="#D9D9D9"/>
<path d="M9.18674 10.81C9.05341 10.9233 8.92008 11.0366 8.78675 11.1433L7.59341 12.0966C7.59341 12.0766 7.58675 12.05 7.58675 12.0233C7.49341 11.31 7.16008 10.65 6.62008 10.11C6.09053 9.57278 5.39529 9.22985 4.64674 9.13664C4.62674 9.13664 4.60008 9.12997 4.58008 9.12997L5.54674 7.90997C5.64008 7.78997 5.74008 7.67664 5.84675 7.55664L6.30008 7.61664C7.73341 7.81664 8.88675 8.94331 9.11341 10.37L9.18674 10.81V10.81Z" fill="#D9D9D9"/>
<path d="M6.95334 12.4967C6.95334 13.23 6.67334 13.93 6.14001 14.4567C5.73334 14.87 5.18667 15.15 4.52001 15.23L2.88667 15.41C1.99334 15.51 1.22667 14.7434 1.32667 13.8434L1.50667 12.2034C1.66667 10.7434 2.88667 9.81004 4.18001 9.78338C4.30667 9.77671 4.44667 9.78338 4.58001 9.79671C5.14667 9.87004 5.69334 10.13 6.15334 10.5834C6.60001 11.03 6.85334 11.5567 6.92667 12.11C6.94001 12.2434 6.95334 12.37 6.95334 12.4967V12.4967Z" fill="#D9D9D9"/>
</svg>
