<svg width="16" height="17" viewBox="0 0 16 17" fill="none" xmlns="http://www.w3.org/2000/svg">
<path d="M13.9266 3.70269V11.236C13.9266 12.556 12.8532 13.6294 11.5332 13.6294C10.899 13.6276 10.2913 13.3749 9.84284 12.9264C9.39439 12.478 9.14167 11.8702 9.13991 11.236C9.13991 9.92269 10.2199 8.84935 11.5332 8.84935C12.0932 8.84935 12.5932 9.04269 12.9999 9.36269V5.39602L6.85991 7.14269V12.5227C6.85815 13.1569 6.60543 13.7646 6.15697 14.2131C5.70852 14.6615 5.10079 14.9143 4.46658 14.916C3.14658 14.916 2.07324 13.8427 2.07324 12.5227C2.07324 11.2094 3.14658 10.136 4.46658 10.136C5.01991 10.136 5.51991 10.3294 5.92658 10.6427V4.74935C5.92658 3.76935 6.51991 3.00935 7.45991 2.75602L11.3132 1.70269C12.0932 1.48935 12.7532 1.56269 13.2199 1.92269C13.6932 2.27602 13.9266 2.87602 13.9266 3.70269Z" fill="#D9D9D9"/>
</svg>
