<svg width="16" height="17" viewBox="0 0 16 17" fill="none" xmlns="http://www.w3.org/2000/svg">
<path d="M14.6668 6.75004C14.3935 6.75004 14.1668 6.52337 14.1668 6.25004V4.91671C14.1668 3.19671 13.0535 2.08337 11.3335 2.08337H4.66683C2.94683 2.08337 1.8335 3.19671 1.8335 4.91671V6.25004C1.8335 6.52337 1.60683 6.75004 1.3335 6.75004C1.06016 6.75004 0.833496 6.52337 0.833496 6.25004V4.91671C0.833496 2.62337 2.3735 1.08337 4.66683 1.08337H11.3335C13.6268 1.08337 15.1668 2.62337 15.1668 4.91671V6.25004C15.1668 6.52337 14.9402 6.75004 14.6668 6.75004ZM11.3335 15.4167H4.66683C2.3735 15.4167 0.833496 13.8767 0.833496 11.5834V10.25C0.833496 9.97671 1.06016 9.75004 1.3335 9.75004C1.60683 9.75004 1.8335 9.97671 1.8335 10.25V11.5834C1.8335 13.3034 2.94683 14.4167 4.66683 14.4167H11.3335C13.0535 14.4167 14.1668 13.3034 14.1668 11.5834V10.25C14.1668 9.97671 14.3935 9.75004 14.6668 9.75004C14.9402 9.75004 15.1668 9.97671 15.1668 10.25V11.5834C15.1668 13.8767 13.6268 15.4167 11.3335 15.4167Z" fill="#D9D9D9"/>
<path d="M10.9333 5.72335L8.42667 4.37001C8.16001 4.23001 7.84667 4.23001 7.58 4.37001L5.06667 5.72335C4.88667 5.82335 4.77334 6.01668 4.77334 6.23002C4.77334 6.45002 4.88667 6.64335 5.06667 6.74335L7.57334 8.09668C7.70667 8.17002 7.85334 8.20335 8 8.20335C8.14667 8.20335 8.29334 8.17002 8.42667 8.09668L10.9333 6.74335C11.0238 6.69195 11.0987 6.61718 11.1503 6.52686C11.2019 6.43655 11.2283 6.33402 11.2267 6.23002C11.2267 6.01668 11.1133 5.82335 10.9333 5.72335ZM7.16 8.56268L4.82667 7.39601C4.73873 7.35258 4.64119 7.33224 4.54322 7.33691C4.44525 7.34157 4.35008 7.37109 4.26667 7.42268C4.18466 7.4746 4.11717 7.54648 4.07053 7.6316C4.02389 7.71672 3.99963 7.81229 4 7.90935V10.116C4 10.496 4.21334 10.8427 4.55334 11.0093L6.88667 12.176C6.96667 12.216 7.05334 12.236 7.14667 12.236C7.25334 12.236 7.35334 12.2093 7.44667 12.1493C7.62 12.0427 7.72 11.8627 7.72 11.6627V9.45601C7.71334 9.07601 7.50667 8.73601 7.16 8.56268ZM11.728 7.42201C11.6446 7.37042 11.5494 7.3409 11.4515 7.33624C11.3535 7.33157 11.2559 7.35192 11.168 7.39535L8.83467 8.56202C8.66863 8.64491 8.52893 8.77237 8.43121 8.93014C8.33348 9.08791 8.28159 9.26976 8.28134 9.45535V11.662C8.28134 11.862 8.38134 12.042 8.55467 12.1487C8.648 12.2087 8.748 12.2353 8.85467 12.2353C8.94134 12.2353 9.02801 12.2153 9.11467 12.1753L11.448 11.0087C11.788 10.8353 12.0013 10.4953 12.0013 10.1153V7.90868C12.0013 7.70868 11.9013 7.52868 11.728 7.42201V7.42201Z" fill="#D9D9D9"/>
</svg>
