<svg width="168" height="48" viewBox="0 0 168 48" fill="none" xmlns="http://www.w3.org/2000/svg">
<g filter="url(#filter0_d_212_26)">
<path d="M19.3023 40C18.6596 39.2865 18.0169 38.5731 17.3436 37.8332C16.7009 38.6788 16.2113 38.3088 15.7522 37.6482C15.6604 37.5161 15.538 37.3576 15.4768 37.2254C15.1095 36.0363 14.6199 35.1643 12.8142 35.1908C12.2021 35.2172 11.5594 34.3716 10.8555 34.0809C10.3047 33.9224 9.53957 33.8695 9.23353 33.5525C8.13178 32.3105 7.18305 30.9893 6.20372 29.6681C5.95888 29.3246 5.80587 28.9018 5.56103 28.4261C5.2856 28.6111 5.10197 28.7432 4.91834 28.8754C4.82653 28.7961 4.73472 28.7168 4.70412 28.6375C3.72478 26.6293 3.87781 24.5946 4.48989 22.5335C4.73472 21.7672 5.01016 21.0273 5.28559 20.261C5.49982 19.6268 5.68345 19.0455 5.10197 18.4113C4.6123 17.9092 4.85714 17.3543 5.3162 16.7994C5.80587 16.2445 6.11191 15.5839 6.41795 14.9497C6.63218 14.5269 6.66278 14.0513 6.7852 13.6021C7.15245 12.2808 7.76453 10.9332 6.32614 9.77053C6.26493 9.71768 6.23432 9.66484 6.23432 9.58556C5.98949 7.28664 5.10197 5.01415 5.80587 2.68881C5.98949 2.00177 6.44855 1.34116 6.96882 0.812677C8.00936 -0.270722 9.57018 -0.244299 10.7637 0.733403C11.4064 1.26189 12.0797 1.73753 12.753 2.21317C13.5181 2.76808 14.4056 2.84735 15.385 2.9002C16.8234 2.97947 18.2617 3.34941 19.7001 3.69293C19.8838 3.74578 20.0674 4.32712 19.9756 4.61778C19.9144 4.80275 19.3635 5.04058 19.0881 4.98773C18.629 4.93488 18.1699 4.69706 17.7415 4.48566C16.3337 3.79863 14.9871 3.95717 13.6099 4.56493C12.9366 4.8556 12.1409 4.93488 11.4982 5.27839C10.8555 5.62191 10.0292 6.0447 9.81501 6.57319C9.11111 8.47574 8.62144 10.4311 8.13178 12.3865C7.88695 13.3378 7.88695 14.3419 7.61151 15.2932C7.42788 15.9274 6.90761 16.5087 6.63218 17.1429C6.50976 17.4336 6.57097 18.0414 6.69339 18.0678C7.58091 18.332 7.39728 18.8605 7.36668 19.4154C7.27486 20.7895 7.21365 22.1636 7.21365 23.5376C7.21365 23.9604 7.48909 24.3832 7.70332 24.991C8.07057 24.4096 8.2848 24.0397 8.56024 23.5376C8.65205 24.4361 8.71326 25.1495 8.80507 25.8894C8.89688 25.9158 9.0193 25.9158 9.11111 25.9422C9.32534 25.5987 9.50897 25.2816 9.84561 24.7267C9.81501 26.9992 9.90682 29.0075 12.1409 30.6458C12.1409 29.2453 12.1409 28.0826 12.1409 26.6293C11.8349 27.2899 11.6206 27.7127 11.4064 28.1355C10.5189 27.1049 10.5495 25.3609 11.6207 22.4278C11.0698 22.7185 10.6719 22.9034 10.0292 23.2205C10.2741 22.4278 10.4577 21.7936 10.7025 21.0802C10.2741 21.1594 9.93742 21.2387 9.50897 21.318C9.32534 20.4196 9.87621 19.8911 10.6413 19.4683C11.2534 19.1248 11.437 19.5475 11.5594 19.9703C11.7431 20.5781 11.8961 21.1859 12.1409 21.7408C12.2939 22.0314 12.6612 22.2428 13.1509 22.375C12.9672 21.7408 12.753 21.133 12.5082 20.261C13.0284 20.6574 13.3039 20.8688 13.7323 21.1859C13.7323 20.7366 13.7323 20.446 13.7323 20.1025C14.4056 20.4196 15.0483 20.8159 15.9358 20.0496C13.8854 19.9703 13.3039 18.8341 12.9978 17.5129C12.0185 17.5393 11.7737 17.2486 12.0491 16.5352C12.0797 16.4295 12.1409 16.3502 12.2021 16.2709C13.7017 14.2627 13.9466 14.4212 15.1401 16.1388C15.7522 17.0372 16.4255 17.9092 17.1906 18.9398C17.9251 17.7771 17.466 16.8787 16.9764 16.086C16.4867 15.2932 15.7828 14.6062 15.0177 13.7342C15.5992 13.8135 15.9664 13.8399 16.5785 13.9192C16.3337 13.1 16.0889 12.3601 15.7828 11.4353C16.2725 11.6731 16.5479 11.8052 17.007 12.0166C16.8234 11.2503 16.6703 10.6425 16.5173 10.0084C16.6091 9.95551 16.7315 9.92908 16.8234 9.87623C17.2824 10.3519 17.7415 10.8275 18.2005 11.3031C18.2924 11.2767 18.4148 11.2767 18.5066 11.2503C18.3842 10.4576 18.2617 9.66484 18.1699 9.21562C17.16 8.81926 16.4867 8.55502 15.7216 8.23792C15.4462 9.32132 14.5893 8.34362 13.9772 8.42289C14.0078 9.47987 13.9772 9.42702 12.753 9.50629C11.8043 9.58556 10.8249 9.79696 9.78441 9.95551C9.99863 8.84568 11.1616 8.63429 12.0185 8.05295C11.7431 7.76228 11.4676 7.55089 11.2534 7.28665C11.1004 7.07525 10.8249 6.73173 10.9168 6.65246C11.1004 6.46749 11.4676 6.30894 11.7431 6.28252C12.2021 6.25609 12.6306 6.36179 13.2121 6.41464C13.1815 6.09755 13.1509 5.80688 13.059 5.14627C14.222 5.70118 15.1707 6.12397 16.2419 6.62604C16.1807 6.07112 16.1195 5.59549 16.0276 4.82918C16.5479 5.19912 16.9152 5.35767 17.16 5.59549C18.782 7.28665 19.792 9.1892 19.7614 11.4353C19.7307 14.3948 19.7614 17.3543 19.7614 20.3139C19.2105 20.1289 18.7514 19.9703 18.0475 19.7325C18.2311 20.2346 18.3536 20.5253 18.5066 20.9216C17.3436 20.8423 16.3337 20.9745 16.1807 22.2693C16.4867 22.375 16.7927 22.4542 17.2212 22.5863C14.528 25.5195 15.5992 28.9018 15.4462 32.1255C15.4156 32.8654 15.9052 33.2882 16.8234 33.2618C17.5885 33.2354 18.323 33.1825 19.2717 33.1561C19.0269 32.8654 18.9962 32.7069 18.935 32.7069C18.0169 32.6012 17.2824 32.3369 16.9458 31.4914C16.4561 30.223 15.997 28.981 16.5173 27.6598C16.7621 27.0785 19.2105 26.8935 19.5777 27.422C19.9144 27.8976 19.792 28.3204 19.0575 28.4526C18.6902 28.5054 18.2924 28.479 17.9251 28.5318C16.9458 28.6904 16.7315 29.1924 17.0988 29.8002C17.6803 29.7209 18.2311 29.4831 18.6596 29.6152C18.9044 29.6945 18.9044 30.3287 18.9962 30.7251C18.5678 30.8043 18.1393 30.8572 17.4966 30.9629C17.8333 31.1743 18.1699 31.5971 18.5372 31.6235C20.2204 31.6763 19.6695 32.7597 19.7307 33.4996C19.8226 34.4245 18.9962 34.3188 18.323 34.3452C18.1699 34.3452 18.0475 34.398 17.7721 34.6887C18.1087 34.8208 18.476 34.9001 18.782 35.0586C19.1187 35.2436 19.6695 35.455 19.7001 35.6928C19.792 36.9876 19.7307 38.3088 19.7307 39.6036C19.6083 39.8415 19.4553 39.9207 19.3023 40ZM7.5809 8.60786C7.73392 8.60786 7.88694 8.58144 8.03997 8.58144C7.97876 7.92083 7.79513 7.26022 7.88694 6.62604C7.97876 5.99185 8.37661 5.38409 8.65205 4.72348C8.43782 4.67063 8.13178 4.61779 7.73392 4.53851C8.07057 4.14215 8.3154 3.85148 8.59084 3.50796C8.2848 3.42869 8.03997 3.37584 7.79514 3.32299C8.49903 2.37171 8.83568 2.31886 9.7538 2.97947C10.1517 3.27014 10.5495 3.61366 11.0086 3.79863C11.3452 3.93075 11.8349 3.85148 12.2327 3.8779C12.2633 3.77221 12.2633 3.66651 12.2939 3.58723C11.437 3.0059 10.5495 2.45099 9.72319 1.84322C8.71326 1.12977 8.13178 1.12977 7.36668 2.00177C6.99943 2.42456 6.75459 2.9002 6.50976 3.37584C6.23432 3.95717 6.20372 4.48566 7.24426 4.45924C7.06064 5.939 6.66278 7.33949 7.5809 8.60786ZM14.4056 17.6978C14.3138 17.6978 14.222 17.6978 14.1302 17.6978C14.3138 18.1735 14.4362 18.6755 14.6811 19.0983C14.7729 19.2569 15.2319 19.2569 15.6604 19.3626C15.1707 18.6755 14.7729 18.1735 14.4056 17.6978Z" fill="#ECECEC"/>
<path d="M8.71328 17.8564C8.19301 17.8035 7.85636 17.7771 7.45851 17.7507C7.94817 16.6409 8.43784 15.5839 8.8663 14.5269C9.29476 13.4435 9.6314 12.3337 10.0293 11.2503C10.1517 11.2767 10.2741 11.3032 10.3965 11.3296C10.0905 12.7301 9.75382 14.1041 9.38657 15.6632C9.87624 15.4782 10.0905 15.3989 10.3047 15.3461C10.9474 16.3238 9.04992 17.2222 10.1517 18.0149C9.53959 19.1512 8.95811 20.2346 8.34603 21.3973C7.64213 20.1817 8.22361 19.0455 8.71328 17.8564Z" fill="#ECECEC"/>
<path d="M11.1616 16.4559C11.3146 15.0554 11.4982 13.5756 11.6513 12.1752C12.7224 13.1 12.4776 15.3197 11.1616 16.4559Z" fill="#ECECEC"/>
<path d="M28.8906 33.75C24.9635 33.75 23 30.9375 23 25.3125V13.4531C23 8.31771 25.25 5.75 29.75 5.75C31.6042 5.75 33.026 6.125 34.0156 6.875C35.0052 7.61458 35.6875 8.69792 36.0625 10.125C36.4375 11.5521 36.625 13.2917 36.625 15.3438H31.25V12.9062C31.25 12.3125 31.1667 11.8177 31 11.4219C30.8438 11.0156 30.5104 10.8125 30 10.8125C29.3646 10.8125 28.9427 11.026 28.7344 11.4531C28.5365 11.8802 28.4375 12.349 28.4375 12.8594V26.1875C28.4375 26.9271 28.5312 27.5312 28.7188 28C28.9167 28.4583 29.2969 28.6875 29.8594 28.6875C30.4427 28.6875 30.8281 28.4583 31.0156 28C31.2135 27.5312 31.3125 26.9167 31.3125 26.1562V22.2344H29.8438V17.4844H36.5625V33.5H34.3594L33.4219 31.1875C32.4635 32.8958 30.9531 33.75 28.8906 33.75ZM42.9219 33.75C41.6198 33.75 40.625 33.4479 39.9375 32.8438C39.2604 32.2396 38.7969 31.4115 38.5469 30.3594C38.2969 29.3073 38.1719 28.1146 38.1719 26.7812C38.1719 25.3542 38.3125 24.1875 38.5938 23.2812C38.875 22.3646 39.3542 21.6146 40.0312 21.0312C40.7188 20.4479 41.6615 19.9531 42.8594 19.5469L46.3281 18.3594V15.9531C46.3281 14.6927 45.9167 14.0625 45.0938 14.0625C44.3438 14.0625 43.9688 14.5729 43.9688 15.5938V17H38.5312C38.5208 16.9167 38.5156 16.8125 38.5156 16.6875C38.5156 16.5521 38.5156 16.401 38.5156 16.2344C38.5156 13.901 39.0625 12.25 40.1562 11.2812C41.2604 10.3021 43.0052 9.8125 45.3906 9.8125C46.6406 9.8125 47.7604 10.0365 48.75 10.4844C49.7396 10.9219 50.5208 11.5729 51.0938 12.4375C51.6771 13.3021 51.9688 14.3698 51.9688 15.6406V33.5H46.4062V30.7188C46.1354 31.6979 45.6875 32.4479 45.0625 32.9688C44.4375 33.4896 43.724 33.75 42.9219 33.75ZM45.125 29.4062C45.5833 29.4062 45.8958 29.2135 46.0625 28.8281C46.2292 28.4427 46.3125 28.026 46.3125 27.5781V21.0469C45.5417 21.3594 44.9427 21.7552 44.5156 22.2344C44.0885 22.7031 43.875 23.3958 43.875 24.3125V27.3281C43.875 28.7135 44.2917 29.4062 45.125 29.4062ZM54.125 33.5V10.0625H59.5938V12.7812C59.8438 11.8229 60.2708 11.0885 60.875 10.5781C61.4792 10.0677 62.3646 9.8125 63.5312 9.8125C64.4688 9.8125 65.2656 10.0312 65.9219 10.4688C66.5885 10.8958 67.0573 11.4635 67.3281 12.1719C67.7552 11.401 68.2552 10.8177 68.8281 10.4219C69.4115 10.0156 70.2396 9.8125 71.3125 9.8125C72.6146 9.8125 73.6146 10.0938 74.3125 10.6562C75.0208 11.2083 75.5104 11.9792 75.7812 12.9688C76.0625 13.9479 76.2031 15.0833 76.2031 16.375V33.5H70.625V16.2812C70.625 14.7708 70.2396 14.0156 69.4688 14.0156C69.0625 14.0156 68.75 14.1562 68.5312 14.4375C68.3125 14.7083 68.1615 15.0469 68.0781 15.4531C67.9948 15.8594 67.9531 16.2656 67.9531 16.6719V33.5H62.375V16.2812C62.375 15.7917 62.3125 15.3021 62.1875 14.8125C62.0729 14.3229 61.7708 14.0781 61.2812 14.0781C60.8646 14.0781 60.5417 14.2292 60.3125 14.5312C60.0833 14.8333 59.9271 15.2083 59.8438 15.6562C59.7604 16.0938 59.7188 16.526 59.7188 16.9531V33.5H54.125ZM84.9688 33.75C83.3021 33.75 81.974 33.4375 80.9844 32.8125C79.9948 32.1875 79.2865 31.2865 78.8594 30.1094C78.4323 28.9323 78.2188 27.5156 78.2188 25.8594V16.4375C78.2188 14.2604 78.8438 12.6146 80.0938 11.5C81.3438 10.375 83.0625 9.8125 85.25 9.8125C89.75 9.8125 92 12.0208 92 16.4375V18.1406C92 20.2031 91.9792 21.5885 91.9375 22.2969H83.8125V26.8281C83.8125 27.2448 83.8385 27.6562 83.8906 28.0625C83.9427 28.4583 84.0573 28.7865 84.2344 29.0469C84.4219 29.3073 84.7188 29.4375 85.125 29.4375C85.7083 29.4375 86.0729 29.1875 86.2188 28.6875C86.3646 28.1771 86.4375 27.5156 86.4375 26.7031V24.4531H92V25.7812C92 27.5312 91.7812 29 91.3438 30.1875C90.9167 31.3646 90.1875 32.2552 89.1562 32.8594C88.1354 33.4531 86.7396 33.75 84.9688 33.75ZM83.7812 19.5156H86.4375V16.3594C86.4375 15.5156 86.3333 14.9115 86.125 14.5469C85.9167 14.1719 85.6042 13.9844 85.1875 13.9844C84.7396 13.9844 84.3906 14.1615 84.1406 14.5156C83.901 14.8698 83.7812 15.4844 83.7812 16.3594V19.5156ZM94.125 33.5V6H105.125V11.3594H99.6562V15.7344H104.844V21.0312H99.6562V33.5H94.125ZM113.625 33.75C108.958 33.75 106.625 31.3281 106.625 26.4844V17.0781C106.625 14.8698 107.245 13.1094 108.484 11.7969C109.724 10.474 111.438 9.8125 113.625 9.8125C115.823 9.8125 117.542 10.474 118.781 11.7969C120.021 13.1094 120.641 14.8698 120.641 17.0781V26.4844C120.641 31.3281 118.302 33.75 113.625 33.75ZM113.625 29.4375C114.094 29.4375 114.427 29.2708 114.625 28.9375C114.833 28.5938 114.938 28.1615 114.938 27.6406V16.1875C114.938 14.8229 114.5 14.1406 113.625 14.1406C112.75 14.1406 112.312 14.8229 112.312 16.1875V27.6406C112.312 28.1615 112.411 28.5938 112.609 28.9375C112.818 29.2708 113.156 29.4375 113.625 29.4375ZM122.719 33.5V10.0625H128.406V12.6719C128.677 11.7656 129.156 11.0573 129.844 10.5469C130.531 10.0365 131.396 9.78125 132.438 9.78125V14.4531C131.979 14.4531 131.432 14.5052 130.797 14.6094C130.161 14.7031 129.604 14.8385 129.125 15.0156C128.646 15.1823 128.406 15.3698 128.406 15.5781V33.5H122.719ZM140.859 33.75C138.234 33.75 136.37 33.0781 135.266 31.7344C134.172 30.3906 133.625 28.4167 133.625 25.8125V18.5938C133.625 16.6354 133.833 15.0052 134.25 13.7031C134.667 12.401 135.396 11.4271 136.438 10.7812C137.479 10.1354 138.927 9.8125 140.781 9.8125C142.073 9.8125 143.229 10.0417 144.25 10.5C145.281 10.9583 146.094 11.6302 146.688 12.5156C147.281 13.401 147.578 14.4844 147.578 15.7656V19.3438H141.875V16.0625C141.875 15.5208 141.797 15.0677 141.641 14.7031C141.484 14.3281 141.146 14.1406 140.625 14.1406C139.708 14.1406 139.25 14.7917 139.25 16.0938V27.4531C139.25 27.9323 139.354 28.375 139.562 28.7812C139.771 29.1771 140.115 29.375 140.594 29.375C141.083 29.375 141.422 29.1823 141.609 28.7969C141.807 28.401 141.906 27.9427 141.906 27.4219V23.4844H147.578V27.5781C147.578 28.8698 147.286 29.9792 146.703 30.9062C146.13 31.8229 145.339 32.526 144.328 33.0156C143.318 33.5052 142.161 33.75 140.859 33.75ZM156.094 33.75C154.427 33.75 153.099 33.4375 152.109 32.8125C151.12 32.1875 150.411 31.2865 149.984 30.1094C149.557 28.9323 149.344 27.5156 149.344 25.8594V16.4375C149.344 14.2604 149.969 12.6146 151.219 11.5C152.469 10.375 154.188 9.8125 156.375 9.8125C160.875 9.8125 163.125 12.0208 163.125 16.4375V18.1406C163.125 20.2031 163.104 21.5885 163.062 22.2969H154.938V26.8281C154.938 27.2448 154.964 27.6562 155.016 28.0625C155.068 28.4583 155.182 28.7865 155.359 29.0469C155.547 29.3073 155.844 29.4375 156.25 29.4375C156.833 29.4375 157.198 29.1875 157.344 28.6875C157.49 28.1771 157.562 27.5156 157.562 26.7031V24.4531H163.125V25.7812C163.125 27.5312 162.906 29 162.469 30.1875C162.042 31.3646 161.312 32.2552 160.281 32.8594C159.26 33.4531 157.865 33.75 156.094 33.75ZM154.906 19.5156H157.562V16.3594C157.562 15.5156 157.458 14.9115 157.25 14.5469C157.042 14.1719 156.729 13.9844 156.312 13.9844C155.865 13.9844 155.516 14.1615 155.266 14.5156C155.026 14.8698 154.906 15.4844 154.906 16.3594V19.5156Z" fill="#ECECEC"/>
</g>
<defs>
<filter id="filter0_d_212_26" x="0" y="0" width="169" height="48" filterUnits="userSpaceOnUse" color-interpolation-filters="sRGB">
<feFlood flood-opacity="0" result="BackgroundImageFix"/>
<feColorMatrix in="SourceAlpha" type="matrix" values="0 0 0 0 0 0 0 0 0 0 0 0 0 0 0 0 0 0 127 0" result="hardAlpha"/>
<feOffset dy="4"/>
<feGaussianBlur stdDeviation="2"/>
<feComposite in2="hardAlpha" operator="out"/>
<feColorMatrix type="matrix" values="0 0 0 0 0 0 0 0 0 0 0 0 0 0 0 0 0 0 0.25 0"/>
<feBlend mode="normal" in2="BackgroundImageFix" result="effect1_dropShadow_212_26"/>
<feBlend mode="normal" in="SourceGraphic" in2="effect1_dropShadow_212_26" result="shape"/>
</filter>
</defs>
</svg>
