<svg width="182" height="40" viewBox="0 0 182 40" fill="none" xmlns="http://www.w3.org/2000/svg">
<path d="M15.3023 40C14.6596 39.2865 14.0169 38.5731 13.3436 37.8332C12.7009 38.6788 12.2113 38.3088 11.7522 37.6482C11.6604 37.5161 11.538 37.3576 11.4768 37.2254C11.1095 36.0363 10.6199 35.1643 8.81421 35.1908C8.20213 35.2172 7.55945 34.3716 6.85555 34.0809C6.30468 33.9224 5.53957 33.8695 5.23353 33.5525C4.13178 32.3105 3.18305 30.9893 2.20372 29.6681C1.95888 29.3246 1.80587 28.9018 1.56103 28.4261C1.2856 28.6111 1.10197 28.7432 0.918344 28.8754C0.826532 28.7961 0.73472 28.7168 0.704116 28.6375C-0.275216 26.6293 -0.122195 24.5946 0.489888 22.5335C0.734721 21.7672 1.01016 21.0273 1.28559 20.261C1.49982 19.6268 1.68345 19.0455 1.10197 18.4113C0.612305 17.9092 0.857137 17.3543 1.3162 16.7994C1.80587 16.2445 2.11191 15.5839 2.41795 14.9497C2.63218 14.5269 2.66278 14.0513 2.7852 13.6021C3.15245 12.2808 3.76453 10.9332 2.32614 9.77053C2.26493 9.71768 2.23432 9.66484 2.23432 9.58556C1.98949 7.28664 1.10197 5.01415 1.80587 2.68881C1.98949 2.00177 2.44855 1.34116 2.96882 0.812677C4.00936 -0.270722 5.57018 -0.244299 6.76374 0.733403C7.40642 1.26189 8.07971 1.73753 8.75301 2.21317C9.51811 2.76808 10.4056 2.84735 11.385 2.9002C12.8234 2.97947 14.2617 3.34941 15.7001 3.69293C15.8838 3.74578 16.0674 4.32712 15.9756 4.61778C15.9144 4.80275 15.3635 5.04058 15.0881 4.98773C14.629 4.93488 14.1699 4.69706 13.7415 4.48566C12.3337 3.79863 10.9871 3.95717 9.60992 4.56493C8.93663 4.8556 8.14092 4.93488 7.49823 5.27839C6.85555 5.62191 6.02924 6.0447 5.81501 6.57319C5.11111 8.47574 4.62144 10.4311 4.13178 12.3865C3.88695 13.3378 3.88695 14.3419 3.61151 15.2932C3.42788 15.9274 2.90761 16.5087 2.63218 17.1429C2.50976 17.4336 2.57097 18.0414 2.69339 18.0678C3.58091 18.332 3.39728 18.8605 3.36668 19.4154C3.27486 20.7895 3.21365 22.1636 3.21365 23.5376C3.21365 23.9604 3.48909 24.3832 3.70332 24.991C4.07057 24.4096 4.2848 24.0397 4.56024 23.5376C4.65205 24.4361 4.71326 25.1495 4.80507 25.8894C4.89688 25.9158 5.0193 25.9158 5.11111 25.9422C5.32534 25.5987 5.50897 25.2816 5.84561 24.7267C5.81501 26.9992 5.90682 29.0075 8.14092 30.6458C8.14092 29.2453 8.14092 28.0826 8.14092 26.6293C7.83488 27.2899 7.62065 27.7127 7.40642 28.1355C6.5189 27.1049 6.54951 25.3609 7.62065 22.4278C7.06978 22.7185 6.67192 22.9034 6.02923 23.2205C6.27407 22.4278 6.4577 21.7936 6.70253 21.0802C6.27407 21.1594 5.93742 21.2387 5.50897 21.318C5.32534 20.4196 5.87621 19.8911 6.64132 19.4683C7.2534 19.1248 7.43702 19.5475 7.55944 19.9703C7.74307 20.5781 7.89609 21.1859 8.14092 21.7408C8.29394 22.0314 8.66119 22.2428 9.15086 22.375C8.96724 21.7408 8.75301 21.133 8.50817 20.261C9.02844 20.6574 9.30388 20.8688 9.73234 21.1859C9.73234 20.7366 9.73234 20.446 9.73234 20.1025C10.4056 20.4196 11.0483 20.8159 11.9358 20.0496C9.88536 19.9703 9.30388 18.8341 8.99784 17.5129C8.01851 17.5393 7.77367 17.2486 8.04911 16.5352C8.07971 16.4295 8.14092 16.3502 8.20213 16.2709C9.70173 14.2627 9.94657 14.4212 11.1401 16.1388C11.7522 17.0372 12.4255 17.9092 13.1906 18.9398C13.9251 17.7771 13.466 16.8787 12.9764 16.086C12.4867 15.2932 11.7828 14.6062 11.0177 13.7342C11.5992 13.8135 11.9664 13.8399 12.5785 13.9192C12.3337 13.1 12.0889 12.3601 11.7828 11.4353C12.2725 11.6731 12.5479 11.8052 13.007 12.0166C12.8234 11.2503 12.6703 10.6425 12.5173 10.0084C12.6091 9.95551 12.7315 9.92908 12.8234 9.87623C13.2824 10.3519 13.7415 10.8275 14.2005 11.3031C14.2924 11.2767 14.4148 11.2767 14.5066 11.2503C14.3842 10.4576 14.2617 9.66484 14.1699 9.21562C13.16 8.81926 12.4867 8.55502 11.7216 8.23792C11.4462 9.32132 10.5893 8.34362 9.97717 8.42289C10.0078 9.47987 9.97717 9.42702 8.75301 9.50629C7.80428 9.58556 6.82495 9.79696 5.78441 9.95551C5.99863 8.84568 7.16159 8.63429 8.0185 8.05295C7.74307 7.76228 7.46763 7.55089 7.2534 7.28665C7.10038 7.07525 6.82494 6.73173 6.91676 6.65246C7.10038 6.46749 7.46763 6.30894 7.74307 6.28252C8.20213 6.25609 8.63059 6.36179 9.21207 6.41464C9.18146 6.09755 9.15086 5.80688 9.05905 5.14627C10.222 5.70118 11.1707 6.12397 12.2419 6.62604C12.1807 6.07112 12.1195 5.59549 12.0276 4.82918C12.5479 5.19912 12.9152 5.35767 13.16 5.59549C14.782 7.28665 15.792 9.1892 15.7614 11.4353C15.7307 14.3948 15.7614 17.3543 15.7614 20.3139C15.2105 20.1289 14.7514 19.9703 14.0475 19.7325C14.2311 20.2346 14.3536 20.5253 14.5066 20.9216C13.3436 20.8423 12.3337 20.9745 12.1807 22.2693C12.4867 22.375 12.7927 22.4542 13.2212 22.5863C10.528 25.5195 11.5992 28.9018 11.4462 32.1255C11.4156 32.8654 11.9052 33.2882 12.8234 33.2618C13.5885 33.2354 14.323 33.1825 15.2717 33.1561C15.0269 32.8654 14.9962 32.7069 14.935 32.7069C14.0169 32.6012 13.2824 32.3369 12.9458 31.4914C12.4561 30.223 11.997 28.981 12.5173 27.6598C12.7621 27.0785 15.2105 26.8935 15.5777 27.422C15.9144 27.8976 15.792 28.3204 15.0575 28.4526C14.6902 28.5054 14.2924 28.479 13.9251 28.5318C12.9458 28.6904 12.7315 29.1924 13.0988 29.8002C13.6803 29.7209 14.2311 29.4831 14.6596 29.6152C14.9044 29.6945 14.9044 30.3287 14.9962 30.7251C14.5678 30.8043 14.1393 30.8572 13.4966 30.9629C13.8333 31.1743 14.1699 31.5971 14.5372 31.6235C16.2204 31.6763 15.6695 32.7597 15.7307 33.4996C15.8226 34.4245 14.9962 34.3188 14.323 34.3452C14.1699 34.3452 14.0475 34.398 13.7721 34.6887C14.1087 34.8208 14.476 34.9001 14.782 35.0586C15.1187 35.2436 15.6695 35.455 15.7001 35.6928C15.792 36.9876 15.7307 38.3088 15.7307 39.6036C15.6083 39.8415 15.4553 39.9207 15.3023 40ZM3.5809 8.60786C3.73392 8.60786 3.88694 8.58144 4.03997 8.58144C3.97876 7.92083 3.79513 7.26022 3.88694 6.62604C3.97876 5.99185 4.37661 5.38409 4.65205 4.72348C4.43782 4.67063 4.13178 4.61779 3.73392 4.53851C4.07057 4.14215 4.3154 3.85148 4.59084 3.50796C4.2848 3.42869 4.03997 3.37584 3.79514 3.32299C4.49903 2.37171 4.83568 2.31886 5.7538 2.97947C6.15165 3.27014 6.54951 3.61366 7.00857 3.79863C7.34522 3.93075 7.83488 3.85148 8.23274 3.8779C8.26334 3.77221 8.26334 3.66651 8.29394 3.58723C7.43703 3.0059 6.54951 2.45099 5.72319 1.84322C4.71326 1.12977 4.13178 1.12977 3.36668 2.00177C2.99943 2.42456 2.75459 2.9002 2.50976 3.37584C2.23432 3.95717 2.20372 4.48566 3.24426 4.45924C3.06064 5.939 2.66278 7.33949 3.5809 8.60786ZM10.4056 17.6978C10.3138 17.6978 10.222 17.6978 10.1302 17.6978C10.3138 18.1735 10.4362 18.6755 10.6811 19.0983C10.7729 19.2569 11.2319 19.2569 11.6604 19.3626C11.1707 18.6755 10.7729 18.1735 10.4056 17.6978Z" fill="#ECECEC"/>
<path d="M4.71328 17.8564C4.19301 17.8035 3.85636 17.7771 3.45851 17.7507C3.94817 16.6409 4.43784 15.5839 4.8663 14.5269C5.29476 13.4435 5.6314 12.3337 6.02925 11.2503C6.15167 11.2767 6.27409 11.3032 6.39651 11.3296C6.09047 12.7301 5.75382 14.1041 5.38657 15.6632C5.87624 15.4782 6.09046 15.3989 6.30469 15.3461C6.94738 16.3238 5.04992 17.2222 6.15167 18.0149C5.53959 19.1512 4.95811 20.2346 4.34603 21.3973C3.64213 20.1817 4.22361 19.0455 4.71328 17.8564Z" fill="#ECECEC"/>
<path d="M7.1616 16.4559C7.31462 15.0554 7.49824 13.5756 7.65126 12.1752C8.72241 13.1 8.47758 15.3197 7.1616 16.4559Z" fill="#ECECEC"/>
<path d="M31.56 33.86H26.56C24.4533 33.86 22.88 33.4067 21.84 32.5C20.8267 31.5667 20.32 30.1533 20.32 28.26V13.34C20.32 11.42 20.8267 10.0067 21.84 9.1C22.88 8.19333 24.4533 7.74 26.56 7.74H37.32V11.98H25.6C25.28 11.98 25.12 12.14 25.12 12.46V29.14C25.12 29.46 25.28 29.62 25.6 29.62H32.8C33.12 29.62 33.28 29.46 33.28 29.14V22.82L33.76 23.58H29.72V19.62H37.8V28.26C37.8 30.1533 37.28 31.5667 36.24 32.5C35.2267 33.4067 33.6667 33.86 31.56 33.86ZM47.1988 33.86H45.6788C44.0254 33.86 42.7988 33.5133 41.9988 32.82C41.2254 32.1 40.8388 30.9133 40.8388 29.26V26.7C40.8388 24.8867 41.2521 23.6333 42.0788 22.94C42.9054 22.22 44.2921 21.86 46.2388 21.86H51.2788V25.1H45.7988C45.4788 25.1 45.3188 25.26 45.3188 25.58V29.7C45.3188 30.02 45.4788 30.18 45.7988 30.18H50.7588V18.14C50.7588 17.82 50.5988 17.66 50.2787 17.66H42.1188V13.86H49.7988C51.7721 13.8333 53.1854 14.2067 54.0388 14.98C54.8921 15.7533 55.3188 17.0867 55.3188 18.98V33.5H51.2388L50.7588 30.18L50.9988 29.66C50.9988 30.9933 50.7054 32.0333 50.1188 32.78C49.5321 33.5 48.5588 33.86 47.1988 33.86ZM67.0225 13.54H68.4625C70.1692 13.54 71.3958 13.8867 72.1425 14.58C72.9158 15.2733 73.3025 16.46 73.3025 18.14V33.5H68.7825V17.7C68.7825 17.38 68.6225 17.22 68.3025 17.22H63.9025C63.5825 17.22 63.4225 17.38 63.4225 17.7L63.5025 33.5H58.9825L58.9025 13.9H62.9825L63.4225 17.22L63.1425 17.74C63.1425 16.38 63.4492 15.34 64.0625 14.62C64.7025 13.9 65.6892 13.54 67.0225 13.54ZM76.9025 13.54H78.2625C79.9692 13.54 81.1958 13.8867 81.9425 14.58C82.7158 15.2733 83.1025 16.46 83.1025 18.14V33.5H78.5825V17.7C78.5825 17.38 78.4225 17.22 78.1025 17.22H73.7825C73.4625 17.22 73.3025 17.38 73.3025 17.7L73.1825 18.26L73.0225 17.74C73.0225 16.38 73.3292 15.34 73.9425 14.62C74.5558 13.9 75.5425 13.54 76.9025 13.54ZM100.36 33.74H92.3997C90.293 33.74 88.773 33.34 87.8397 32.54C86.9064 31.7133 86.4397 30.3533 86.4397 28.46V18.58C86.4397 16.66 86.8397 15.34 87.6397 14.62C88.4397 13.9 89.813 13.54 91.7597 13.54H95.4797C97.453 13.54 98.8397 13.9 99.6397 14.62C100.466 15.34 100.88 16.66 100.88 18.58V26.02H90.4397V22.78H96.3997V17.7C96.3997 17.38 96.253 17.22 95.9597 17.22H91.4397C91.1197 17.22 90.9597 17.38 90.9597 17.7V29.46C90.9597 29.78 91.1197 29.94 91.4397 29.94H100.36V33.74ZM118.774 18.98V23.02H109.134L109.814 22.3V33.5H105.134V8.1H109.814V19.66L109.134 18.98H118.774ZM107.934 12.18V8.1H119.534V12.18H107.934ZM131.672 17.38H126.752C126.432 17.38 126.272 17.54 126.272 17.86V29.54C126.272 29.86 126.432 30.02 126.752 30.02H131.672C131.992 30.02 132.152 29.86 132.152 29.54V17.86C132.152 17.54 131.992 17.38 131.672 17.38ZM121.712 28.54V18.86C121.712 16.94 122.179 15.58 123.112 14.78C124.046 13.9533 125.566 13.54 127.672 13.54H130.752C132.859 13.54 134.379 13.9533 135.312 14.78C136.246 15.58 136.712 16.94 136.712 18.86V28.54C136.712 30.4333 136.246 31.7933 135.312 32.62C134.379 33.4467 132.859 33.86 130.752 33.86H127.672C125.566 33.86 124.046 33.4467 123.112 32.62C122.179 31.7933 121.712 30.4333 121.712 28.54ZM148.59 13.54H150.11V17.5H145.47C145.15 17.5 144.99 17.66 144.99 17.98L145.03 33.5H140.51L140.47 13.9H144.51L144.99 17.22L144.71 17.74C144.71 16.38 145.016 15.34 145.63 14.62C146.243 13.9 147.23 13.54 148.59 13.54ZM163.359 33.86H157.399C155.292 33.86 153.772 33.4467 152.839 32.62C151.905 31.7933 151.439 30.4333 151.439 28.54V18.86C151.439 16.94 151.905 15.58 152.839 14.78C153.772 13.9533 155.292 13.54 157.399 13.54H163.359V17.38H156.479C156.159 17.38 155.999 17.54 155.999 17.86V29.54C155.999 29.86 156.159 30.02 156.479 30.02H163.359V33.86ZM179.696 33.74H171.736C169.629 33.74 168.109 33.34 167.176 32.54C166.242 31.7133 165.776 30.3533 165.776 28.46V18.58C165.776 16.66 166.176 15.34 166.976 14.62C167.776 13.9 169.149 13.54 171.096 13.54H174.816C176.789 13.54 178.176 13.9 178.976 14.62C179.802 15.34 180.216 16.66 180.216 18.58V26.02H169.776V22.78H175.736V17.7C175.736 17.38 175.589 17.22 175.296 17.22H170.776C170.456 17.22 170.296 17.38 170.296 17.7V29.46C170.296 29.78 170.456 29.94 170.776 29.94H179.696V33.74Z" fill="#ECECEC"/>
</svg>
